<svg width="48" height="48" viewBox="0 0 48 48" fill="none" xmlns="http://www.w3.org/2000/svg">
<path d="M42.8438 12H0.46875V40.5H42.8438V12Z" fill="#FFC970"/>
<path d="M40.3773 40.5004L21.6555 18.4785L2.93359 40.5004H40.3773Z" fill="#FFB233"/>
<path d="M21.6562 21.375L38.625 40.5H4.6875L21.6562 21.375Z" fill="#FFC970"/>
<path d="M21.6562 33.5625L0.46875 14.4375V12H42.8438V14.4375L21.6562 33.5625Z" fill="#FFB233"/>
<path d="M22.1113 31.125L0.923828 12H43.2988L22.1113 31.125Z" fill="#FFDCA3"/>
<path d="M32.5312 14.0625C32.5312 18.7219 36.3094 22.5 40.9688 22.5C41.6156 22.5 42.2437 22.425 42.8438 22.2938V12H32.7844C32.6156 12.6562 32.5312 13.35 32.5312 14.0625Z" fill="#FFB233"/>
<path d="M32.7844 12C32.6156 12.6563 32.5312 13.35 32.5312 14.0625C32.5312 16.1344 33.2812 18.0375 34.5281 19.5094L42.8438 12H32.7844Z" fill="#FFC970"/>
<path d="M40.9688 20.625C44.5931 20.625 47.5312 17.6869 47.5312 14.0625C47.5312 10.4381 44.5931 7.5 40.9688 7.5C37.3444 7.5 34.4062 10.4381 34.4062 14.0625C34.4062 17.6869 37.3444 20.625 40.9688 20.625Z" fill="#D84861"/>
<path d="M44.2879 8.40039C44.8598 9.37539 45.1879 10.5098 45.1879 11.7191C45.1879 15.3473 42.2535 18.2816 38.6254 18.2816C37.416 18.2816 36.2816 17.9535 35.3066 17.3816C36.4504 19.3223 38.5504 20.6254 40.9691 20.6254C44.5973 20.6254 47.5316 17.691 47.5316 14.0629C47.5316 11.6535 46.2285 9.54414 44.2879 8.40039Z" fill="#C12944"/>
<path d="M38.625 15C40.4372 15 41.9062 13.5309 41.9062 11.7188C41.9062 9.90657 40.4372 8.4375 38.625 8.4375C36.8128 8.4375 35.3438 9.90657 35.3438 11.7188C35.3438 13.5309 36.8128 15 38.625 15Z" fill="#E17084"/>
<path d="M40.9687 19.2192C38.1281 19.2192 35.8125 16.9036 35.8125 14.063C35.8125 12.6661 36.3562 11.363 37.3594 10.388C38.3531 9.41299 39.6656 8.88799 41.0625 8.90674C42.4406 8.93486 43.7344 9.49736 44.6906 10.5099C45.6562 11.5224 46.1625 12.8442 46.1156 14.2317C46.0781 15.4411 45.6187 16.6036 44.8219 17.4942C44.4281 17.9349 43.8281 18.0849 43.275 17.8692C42.7219 17.663 42.3656 17.1474 42.3656 16.5567V16.4067H40.9594C39.6656 16.4067 38.6156 15.3567 38.6156 14.063C38.6156 12.7692 39.6656 11.7192 40.9594 11.7192C42.2531 11.7192 43.3031 12.7692 43.3031 14.063V16.5567C43.3031 16.8567 43.5375 16.9692 43.6031 16.9974C43.6781 17.0255 43.9219 17.0911 44.1187 16.8755C44.7656 16.1442 45.1406 15.1974 45.1781 14.2036C45.2156 13.0692 44.7937 11.9911 44.0062 11.1567C43.2187 10.3317 42.1594 9.86299 41.0344 9.84424C39.8906 9.82549 38.8125 10.2567 38.0062 11.0536C37.1906 11.8505 36.7406 12.9192 36.7406 14.063C36.7406 16.388 38.6344 18.2817 40.9594 18.2817V19.2192H40.9687ZM40.9687 12.6567C40.1906 12.6567 39.5625 13.2849 39.5625 14.063C39.5625 14.8411 40.1906 15.4692 40.9687 15.4692H42.375V14.063C42.375 13.2849 41.7469 12.6567 40.9687 12.6567Z" fill="#FFC970"/>
</svg>
