<svg width="32" height="33" viewBox="0 0 32 33" fill="none" xmlns="http://www.w3.org/2000/svg">
<g clip-path="url(#clip0_42432_53598)">
<path d="M31.9827 16.6797C31.9827 15.338 31.8739 14.359 31.6383 13.3438H16.3184V19.3991H25.3108C25.1296 20.904 24.1506 23.1702 21.9749 24.6931L21.9444 24.8958L26.7883 28.6483L27.1239 28.6818C30.2059 25.8353 31.9827 21.6473 31.9827 16.6797Z" fill="#4285F4"/>
<path d="M16.3188 32.6329C20.7244 32.6329 24.4228 31.1824 27.1243 28.6805L21.9754 24.6918C20.5975 25.6527 18.7482 26.3235 16.3188 26.3235C12.0039 26.3235 8.34163 23.4772 7.03614 19.543L6.84479 19.5592L1.80806 23.4572L1.74219 23.6403C4.42541 28.9705 9.93697 32.6329 16.3188 32.6329Z" fill="#34A853"/>
<path d="M7.03635 19.5452C6.69189 18.5299 6.49253 17.4421 6.49253 16.318C6.49253 15.1939 6.69189 14.1062 7.01823 13.0909L7.00911 12.8747L1.90926 8.91406L1.7424 8.99343C0.636513 11.2053 0.00195312 13.6892 0.00195312 16.318C0.00195312 18.9469 0.636513 21.4306 1.7424 23.6425L7.03635 19.5452Z" fill="#FBBC05"/>
<path d="M16.3188 6.30923C19.3827 6.30923 21.4495 7.63271 22.628 8.73872L27.2331 4.24244C24.4048 1.61358 20.7244 0 16.3188 0C9.93697 0 4.42541 3.66225 1.74219 8.99245L7.01802 13.0899C8.34163 9.15568 12.0039 6.30923 16.3188 6.30923Z" fill="#EB4335"/>
</g>
<defs>
<clipPath id="clip0_42432_53598">
<rect width="32" height="32.7466" fill="white"/>
</clipPath>
</defs>
</svg>
