<svg width="173" height="168" viewBox="0 0 173 168" fill="none" xmlns="http://www.w3.org/2000/svg">
<rect x="34.3059" y="4.30495" width="102.883" height="102.883" fill="white" fill-opacity="0.1" stroke="white" stroke-width="1.00834"/>
<rect x="68.8924" y="4.05055" width="33.7086" height="34.3421" stroke="white" stroke-opacity="0.6" stroke-width="0.499547"/>
<rect x="68.6426" y="38.6426" width="34.2081" height="34.8416" fill="white" fill-opacity="0.02"/>
<rect x="68.8924" y="38.8924" width="33.7086" height="34.3421" stroke="white" stroke-opacity="0.5" stroke-width="0.499547"/>
<rect x="68.8924" y="73.1004" width="33.7086" height="34.3421" stroke="white" stroke-opacity="0.4" stroke-width="0.499547"/>
<rect x="102.852" y="3.80078" width="34.8416" height="34.8416" fill="white" fill-opacity="0.02"/>
<rect x="103.101" y="4.05055" width="34.3421" height="34.3421" stroke="white" stroke-opacity="0.42" stroke-width="0.499547"/>
<rect x="102.313" y="37.989" width="34.8048" height="34.8048" stroke="white" stroke-opacity="0.44" stroke-width="0.499547"/>
<rect x="102.852" y="72.8506" width="34.8416" height="34.8416" fill="white" fill-opacity="0.02"/>
<rect x="103.101" y="73.1004" width="34.3421" height="34.3421" stroke="white" stroke-opacity="0.42" stroke-width="0.499547"/>
<rect x="33.8018" y="3.80078" width="34.8416" height="34.8416" fill="white" fill-opacity="0.02"/>
<rect x="34.0515" y="4.05055" width="34.3421" height="34.3421" stroke="white" stroke-opacity="0.42" stroke-width="0.499547"/>
<rect x="34.0515" y="38.8924" width="34.3421" height="34.3421" stroke="white" stroke-opacity="0.4" stroke-width="0.499547"/>
<rect x="34.0515" y="73.1004" width="34.3421" height="34.3421" stroke="white" stroke-opacity="0.15" stroke-width="0.499547"/>
<path d="M47.2373 72.2081H53.6988V58.3348H65.2916V51.8733H53.6988V44.4615H68.1423V38H47.2373V72.2081Z" fill="white"/>
<path d="M85.7795 73.0763C89.0244 73.0763 91.8186 72.3702 94.1621 70.9581C96.5206 69.546 98.3309 67.5705 99.5928 65.0317C100.87 62.4929 101.508 59.5409 101.508 56.1758C101.508 52.8108 100.87 49.8588 99.5928 47.32C98.3309 44.7812 96.5206 42.8057 94.1621 41.3936C91.8186 39.9815 89.0244 39.2754 85.7795 39.2754C82.5346 39.2754 79.7329 39.9815 77.3743 41.3936C75.0308 42.8057 73.2206 44.7812 71.9436 47.32C70.6817 49.8588 70.0508 52.8108 70.0508 56.1758C70.0508 59.5409 70.6817 62.4929 71.9436 65.0317C73.2206 67.5705 75.0308 69.546 77.3743 70.9581C79.7329 72.3702 82.5346 73.0763 85.7795 73.0763ZM85.7795 67.3076C82.6998 67.2625 80.3863 66.241 78.839 64.243C77.3067 62.245 76.5406 59.5559 76.5406 56.1758C76.5406 52.7958 77.3067 50.0842 78.839 48.0411C80.3863 45.998 82.6998 44.999 85.7795 45.0441C88.8741 45.0891 91.1876 46.1107 92.7199 48.1087C94.2522 50.1067 95.0184 52.7958 95.0184 56.1758C95.0184 59.5559 94.2522 62.2675 92.7199 64.3106C91.1876 66.3537 88.8741 67.3527 85.7795 67.3076Z" fill="white"/>
<path d="M102.237 72.8501H108.545V61.472H115.572L121.068 72.8501H128.21L122.181 60.3994C124.082 59.529 125.481 58.2155 126.378 56.4591C127.29 54.6871 127.746 52.6586 127.746 50.3737C127.746 47.5447 127.058 45.1354 125.682 43.1458C124.306 41.1562 122.119 39.9282 119.12 39.4619C118.687 39.3842 118.192 39.3376 117.635 39.322C117.094 39.2909 116.662 39.2754 116.337 39.2754H102.237V72.8501ZM108.545 55.5498V45.1976H116.059C116.383 45.1976 116.739 45.2131 117.125 45.2442C117.512 45.2753 117.867 45.3375 118.192 45.4307C119.042 45.6639 119.699 46.0603 120.163 46.6198C120.627 47.1639 120.944 47.7779 121.114 48.4618C121.3 49.1302 121.392 49.7675 121.392 50.3737C121.392 50.9799 121.3 51.625 121.114 52.3089C120.944 52.9773 120.627 53.5913 120.163 54.1508C119.699 54.6949 119.042 55.0835 118.192 55.3166C117.867 55.4099 117.512 55.4721 117.125 55.5031C116.739 55.5342 116.383 55.5498 116.059 55.5498H108.545Z" fill="white"/>
<rect x="30" width="7.60181" height="7.60181" fill="white"/>
<rect x="133.892" y="103.892" width="7.60181" height="7.60181" fill="white"/>
<rect x="30" y="103.892" width="7.60181" height="7.60181" fill="white"/>
<rect x="133.892" y="0.632812" width="7.60181" height="7.60181" fill="white"/>
<path d="M6.68094 140.564L12.5759 156.228L18.4568 140.564H23.0464V161H19.5095V154.263L19.8604 145.252L13.8251 161H11.2846L5.26334 145.266L5.61423 154.263V161H2.07727V140.564H6.68094ZM36.0013 161C35.8516 160.71 35.7206 160.237 35.6083 159.582C34.5229 160.715 33.1942 161.281 31.6222 161.281C30.097 161.281 28.8525 160.846 27.8887 159.975C26.9249 159.105 26.443 158.029 26.443 156.747C26.443 155.128 27.0419 153.889 28.2396 153.028C29.4467 152.158 31.1684 151.722 33.4047 151.722H35.496V150.726C35.496 149.94 35.2761 149.313 34.8363 148.845C34.3965 148.368 33.7275 148.129 32.8292 148.129C32.0526 148.129 31.4163 148.326 30.9204 148.719C30.4245 149.103 30.1765 149.594 30.1765 150.193H26.7659C26.7659 149.36 27.0419 148.583 27.594 147.863C28.146 147.133 28.8946 146.562 29.8397 146.15C30.7941 145.739 31.8561 145.533 33.0257 145.533C34.8036 145.533 36.2212 145.982 37.2785 146.88C38.3359 147.769 38.8786 149.023 38.9066 150.642V157.491C38.9066 158.857 39.0985 159.947 39.4821 160.761V161H36.0013ZM32.2538 158.544C32.9275 158.544 33.5591 158.38 34.1486 158.053C34.7474 157.725 35.1966 157.285 35.496 156.733V153.87H33.6573C32.3941 153.87 31.4444 154.09 30.8081 154.53C30.1718 154.969 29.8537 155.592 29.8537 156.396C29.8537 157.051 30.0689 157.575 30.4993 157.968C30.9391 158.352 31.5239 158.544 32.2538 158.544ZM45.6437 145.813L45.742 147.568C46.8648 146.211 48.3386 145.533 50.1632 145.533C53.3259 145.533 54.9353 147.343 54.9914 150.965V161H51.5808V151.161C51.5808 150.197 51.3702 149.486 50.9492 149.028C50.5375 148.56 49.8591 148.326 48.914 148.326C47.5385 148.326 46.5139 148.948 45.8402 150.193V161H42.4296V145.813H45.6437ZM67.5533 161C67.4036 160.71 67.2726 160.237 67.1603 159.582C66.0749 160.715 64.7462 161.281 63.1742 161.281C61.649 161.281 60.4045 160.846 59.4407 159.975C58.4769 159.105 57.995 158.029 57.995 156.747C57.995 155.128 58.5939 153.889 59.7916 153.028C60.9987 152.158 62.7204 151.722 64.9567 151.722H67.048V150.726C67.048 149.94 66.8281 149.313 66.3883 148.845C65.9485 148.368 65.2795 148.129 64.3812 148.129C63.6046 148.129 62.9683 148.326 62.4724 148.719C61.9765 149.103 61.7285 149.594 61.7285 150.193H58.3179C58.3179 149.36 58.5939 148.583 59.146 147.863C59.698 147.133 60.4466 146.562 61.3917 146.15C62.3461 145.739 63.4081 145.533 64.5777 145.533C66.3556 145.533 67.7732 145.982 68.8305 146.88C69.8879 147.769 70.4306 149.023 70.4586 150.642V157.491C70.4586 158.857 70.6505 159.947 71.0341 160.761V161H67.5533ZM63.8058 158.544C64.4795 158.544 65.1111 158.38 65.7006 158.053C66.2994 157.725 66.7486 157.285 67.048 156.733V153.87H65.2093C63.9461 153.87 62.9964 154.09 62.3601 154.53C61.7238 154.969 61.4057 155.592 61.4057 156.396C61.4057 157.051 61.6209 157.575 62.0513 157.968C62.4911 158.352 63.0759 158.544 63.8058 158.544ZM73.4342 153.294C73.4342 150.936 73.9863 149.056 75.0904 147.652C76.2039 146.239 77.6776 145.533 79.5116 145.533C81.2427 145.533 82.6041 146.136 83.596 147.343L83.7503 145.813H86.8241V160.537C86.8241 162.53 86.2019 164.102 84.9574 165.253C83.7223 166.404 82.052 166.979 79.9467 166.979C78.8332 166.979 77.7431 166.745 76.6764 166.277C75.6191 165.819 74.8144 165.215 74.2623 164.467L75.8764 162.418C76.9244 163.662 78.2156 164.284 79.7502 164.284C80.8824 164.284 81.776 163.976 82.431 163.358C83.086 162.75 83.4135 161.851 83.4135 160.663V159.639C82.431 160.733 81.121 161.281 79.4835 161.281C77.7057 161.281 76.2507 160.574 75.1185 159.161C73.9956 157.748 73.4342 155.793 73.4342 153.294ZM76.8308 153.589C76.8308 155.114 77.1396 156.317 77.7572 157.196C78.3841 158.067 79.2496 158.502 80.3537 158.502C81.7292 158.502 82.7491 157.912 83.4135 156.733V150.052C82.7679 148.901 81.7573 148.326 80.3818 148.326C79.259 148.326 78.3841 148.77 77.7572 149.659C77.1396 150.548 76.8308 151.858 76.8308 153.589ZM97.028 161.281C94.8665 161.281 93.1121 160.602 91.7647 159.246C90.4266 157.879 89.7576 156.064 89.7576 153.8V153.379C89.7576 151.863 90.0476 150.511 90.6278 149.322C91.2173 148.125 92.0407 147.194 93.098 146.529C94.1554 145.865 95.3344 145.533 96.635 145.533C98.7029 145.533 100.298 146.192 101.421 147.512C102.553 148.831 103.119 150.698 103.119 153.112V154.487H93.1963C93.2992 155.741 93.7156 156.733 94.4455 157.463C95.1847 158.193 96.111 158.558 97.2245 158.558C98.7871 158.558 100.06 157.926 101.042 156.663L102.881 158.417C102.273 159.325 101.459 160.032 100.439 160.537C99.4281 161.033 98.2912 161.281 97.028 161.281ZM96.621 148.27C95.6853 148.27 94.9273 148.597 94.3472 149.252C93.7764 149.907 93.4115 150.82 93.2524 151.989H99.7509V151.737C99.6761 150.595 99.372 149.734 98.8386 149.154C98.3052 148.564 97.566 148.27 96.621 148.27ZM108.986 145.813L109.085 147.4C110.151 146.155 111.611 145.533 113.464 145.533C115.494 145.533 116.884 146.309 117.632 147.863C118.736 146.309 120.29 145.533 122.292 145.533C123.967 145.533 125.211 145.996 126.026 146.922C126.849 147.849 127.27 149.215 127.289 151.021V161H123.878V151.119C123.878 150.155 123.668 149.449 123.246 149C122.825 148.55 122.128 148.326 121.155 148.326C120.379 148.326 119.742 148.536 119.246 148.957C118.76 149.369 118.418 149.912 118.222 150.586L118.236 161H114.825V151.007C114.778 149.219 113.866 148.326 112.088 148.326C110.722 148.326 109.754 148.883 109.183 149.996V161H105.772V145.813H108.986ZM137.479 161.281C135.317 161.281 133.563 160.602 132.215 159.246C130.877 157.879 130.208 156.064 130.208 153.8V153.379C130.208 151.863 130.498 150.511 131.078 149.322C131.668 148.125 132.491 147.194 133.549 146.529C134.606 145.865 135.785 145.533 137.086 145.533C139.153 145.533 140.749 146.192 141.872 147.512C143.004 148.831 143.57 150.698 143.57 153.112V154.487H133.647C133.75 155.741 134.166 156.733 134.896 157.463C135.635 158.193 136.562 158.558 137.675 158.558C139.238 158.558 140.51 157.926 141.493 156.663L143.331 158.417C142.723 159.325 141.909 160.032 140.889 160.537C139.879 161.033 138.742 161.281 137.479 161.281ZM137.072 148.27C136.136 148.27 135.378 148.597 134.798 149.252C134.227 149.907 133.862 150.82 133.703 151.989H140.201V151.737C140.127 150.595 139.823 149.734 139.289 149.154C138.756 148.564 138.017 148.27 137.072 148.27ZM149.395 145.813L149.493 147.568C150.616 146.211 152.09 145.533 153.914 145.533C157.077 145.533 158.686 147.343 158.742 150.965V161H155.332V151.161C155.332 150.197 155.121 149.486 154.7 149.028C154.289 148.56 153.61 148.326 152.665 148.326C151.29 148.326 150.265 148.948 149.591 150.193V161H146.181V145.813H149.395ZM166.504 142.122V145.813H169.185V148.34H166.504V156.817C166.504 157.398 166.616 157.819 166.841 158.081C167.075 158.333 167.487 158.46 168.076 158.46C168.469 158.46 168.867 158.413 169.269 158.319V160.958C168.493 161.173 167.744 161.281 167.023 161.281C164.404 161.281 163.094 159.835 163.094 156.944V148.34H160.595V145.813H163.094V142.122H166.504Z" fill="white"/>
</svg>
