<svg width="32" height="33" viewBox="0 0 32 33" fill="none" xmlns="http://www.w3.org/2000/svg">
<g clip-path="url(#clip0_42432_53631)">
<path d="M31 6.74609H17C16.7348 6.74609 16.4804 6.85145 16.2929 7.03899C16.1054 7.22652 16 7.48088 16 7.74609C16 8.01131 16.1054 8.26566 16.2929 8.4532C16.4804 8.64074 16.7348 8.74609 17 8.74609H28.086L21.942 13.5241L17.536 10.7221L16.464 12.4101L21.464 15.5901C21.6376 15.7015 21.8416 15.7562 22.0476 15.7465C22.2537 15.7369 22.4516 15.6633 22.614 15.5361L30 9.79009V22.7461H17C16.7348 22.7461 16.4804 22.8514 16.2929 23.039C16.1054 23.2265 16 23.4809 16 23.7461C16 24.0113 16.1054 24.2657 16.2929 24.4532C16.4804 24.6407 16.7348 24.7461 17 24.7461H31C31.2652 24.7461 31.5196 24.6407 31.7071 24.4532C31.8946 24.2657 32 24.0113 32 23.7461V7.74609C32 7.48088 31.8946 7.22652 31.7071 7.03899C31.5196 6.85145 31.2652 6.74609 31 6.74609Z" fill="#1976D2"/>
<path d="M17.638 0.976621C17.5256 0.882044 17.3934 0.8139 17.2511 0.777209C17.1088 0.740519 16.9601 0.736217 16.816 0.764621L0.816 3.76462C0.586672 3.80716 0.379484 3.92867 0.230419 4.10806C0.0813541 4.28745 -0.000171611 4.51338 2.71232e-07 4.74662V26.7466C0.000216231 26.9798 0.0818821 27.2055 0.230881 27.3848C0.379879 27.5641 0.586845 27.6857 0.816 27.7286L16.816 30.7286C16.9604 30.7564 17.1092 30.7518 17.2516 30.7153C17.3941 30.6787 17.5267 30.611 17.6398 30.5172C17.753 30.4233 17.844 30.3055 17.9063 30.1723C17.9686 30.039 18.0006 29.8937 18 29.7466V1.74662C18.0001 1.59953 17.9678 1.45423 17.9052 1.32111C17.8426 1.18799 17.7514 1.07036 17.638 0.976621Z" fill="#2196F3"/>
<path d="M9 22.7461C6.244 22.7461 4 20.0541 4 16.7461C4 13.4381 6.244 10.7461 9 10.7461C11.756 10.7461 14 13.4381 14 16.7461C14 20.0541 11.756 22.7461 9 22.7461ZM9 12.7461C7.346 12.7461 6 14.5401 6 16.7461C6 18.9521 7.346 20.7461 9 20.7461C10.654 20.7461 12 18.9521 12 16.7461C12 14.5401 10.654 12.7461 9 12.7461Z" fill="#FAFAFA"/>
</g>
<defs>
<clipPath id="clip0_42432_53631">
<rect width="32" height="32" fill="white" transform="translate(0 0.746094)"/>
</clipPath>
</defs>
</svg>
