<svg width="32" height="33" viewBox="0 0 32 33" fill="none" xmlns="http://www.w3.org/2000/svg">
<path d="M29.334 6.41276V12.5841C29.334 13.1148 29.1233 13.6234 28.748 13.9981L14.5867 28.1601C14.2113 28.5354 13.7027 28.7461 13.172 28.7461H7.00065C6.07998 28.7461 5.33398 28.0001 5.33398 27.0794V20.9081C5.33398 20.3774 5.54465 19.8688 5.91998 19.4941L20.0813 5.33209C20.4567 4.95676 20.9653 4.74609 21.496 4.74609H27.6673C28.588 4.74609 29.334 5.49209 29.334 6.41276Z" fill="#039BE5"/>
<path d="M29.334 20.9061V27.0794C29.334 28.0001 28.588 28.7461 27.6673 28.7461H21.494C20.9647 28.7461 20.4573 28.5361 20.0827 28.1614L17.334 25.4128V20.0794C17.334 18.2388 18.8267 16.7461 20.6673 16.7461H26.0007L28.7493 19.4948C29.124 19.8694 29.334 20.3768 29.334 20.9061Z" fill="#1976D2"/>
<path d="M5.33398 12.5861V6.41276C5.33398 5.49209 6.07998 4.74609 7.00065 4.74609H13.174C13.7033 4.74609 14.2107 4.95609 14.5853 5.33076L17.334 8.07943V13.4128C17.334 15.2534 15.8413 16.7461 14.0007 16.7461H8.66732L5.91865 13.9974C5.54398 13.6228 5.33398 13.1154 5.33398 12.5861Z" fill="#4DD0E1"/>
<path d="M14.8787 23.4115H3.78668C3.16802 23.4115 2.66602 22.9095 2.66602 22.2908V11.1988C2.66602 10.5801 3.16802 10.0781 3.78668 10.0781H14.8787C15.4973 10.0781 15.9993 10.5801 15.9993 11.1988V22.2908C15.9993 22.9095 15.4973 23.4115 14.8787 23.4115Z" fill="#1976D2"/>
<path d="M11.518 14.4974H8.63998V16.1801H11.334V17.2587H8.63998V19.0067H11.6713V20.0807H7.33398V13.4141H11.518V14.4974Z" fill="white"/>
</svg>
