<svg width="241" height="178" viewBox="0 0 241 178" fill="none" xmlns="http://www.w3.org/2000/svg">
<path d="M67.1016 46.5139C67.1016 43.7368 69.3652 41.4854 72.1574 41.4854H142.939C145.731 41.4854 147.995 43.7368 147.995 46.5139V176H67.1016V46.5139Z" fill="#F5F5F5"/>
<path fill-rule="evenodd" clip-rule="evenodd" d="M142.938 33.1215H72.0625C71.3635 33.1215 70.7969 33.7366 70.7969 34.4953V171.879H144.203V34.4953C144.203 33.7366 143.636 33.1215 142.938 33.1215ZM72.0625 29C69.2666 29 67 31.4604 67 34.4953V176H148V34.4953C148 31.4604 145.733 29 142.938 29H72.0625Z" fill="#C4C4C4"/>
<path d="M76 51H139V155H76V51Z" fill="#FFFFFD"/>
<path d="M101 42.5C101 41.6716 101.582 41 102.3 41H112.7C113.418 41 114 41.6716 114 42.5C114 43.3284 113.418 44 112.7 44H102.3C101.582 44 101 43.3284 101 42.5Z" fill="#C4C4C4"/>
<path fill-rule="evenodd" clip-rule="evenodd" d="M180 175C180 176.657 178.657 178 177 178H65C63.3431 178 62 176.657 62 175V175C62 173.343 63.3431 172 65 172H177C178.657 172 180 173.343 180 175V175Z" fill="#C4C4C4"/>
<path fill-rule="evenodd" clip-rule="evenodd" d="M225 175C225 176.657 223.657 178 222 178H191C189.343 178 188 176.657 188 175V175C188 173.343 189.343 172 191 172H222C223.657 172 225 173.343 225 175V175Z" fill="#C4C4C4"/>
<path fill-rule="evenodd" clip-rule="evenodd" d="M54 175C54 176.657 52.6569 178 51 178H20C18.3431 178 17 176.657 17 175V175C17 173.343 18.3431 172 20 172H51C52.6569 172 54 173.343 54 175V175Z" fill="#C4C4C4"/>
<path fill-rule="evenodd" clip-rule="evenodd" d="M241 175C241 176.657 239.657 178 238 178H232C230.343 178 229 176.657 229 175V175C229 173.343 230.343 172 232 172H238C239.657 172 241 173.343 241 175V175Z" fill="#C4C4C4"/>
<path fill-rule="evenodd" clip-rule="evenodd" d="M12 175C12 176.657 10.6569 178 9 178H6C4.34315 178 3 176.657 3 175V175C3 173.343 4.34315 172 6 172H9C10.6569 172 12 173.343 12 175V175Z" fill="#C4C4C4"/>
<path d="M110.076 115.657C110.076 113.574 111.774 111.886 113.868 111.886C115.962 111.886 117.66 113.574 117.66 115.657V130.743C117.66 132.826 115.962 134.514 113.868 134.514C111.774 134.514 110.076 132.826 110.076 130.743V115.657Z" fill="#C4C4C4"/>
<path d="M151.787 115.657C151.787 113.574 153.485 111.886 155.579 111.886C157.673 111.886 159.371 113.574 159.371 115.657V130.743C159.371 132.826 157.673 134.514 155.579 134.514C153.485 134.514 151.787 132.826 151.787 130.743V115.657Z" fill="#C4C4C4"/>
<path d="M94.9082 135.772C94.9082 132.995 97.1718 130.743 99.964 130.743H170.746C173.538 130.743 175.802 132.995 175.802 135.772V176H94.9082V135.772Z" fill="#FFFFFD"/>
<path fill-rule="evenodd" clip-rule="evenodd" d="M170.746 134.515H99.964C99.266 134.515 98.7001 135.078 98.7001 135.772V172.229H172.01V135.772C172.01 135.078 171.443 134.515 170.746 134.515ZM99.964 130.743C97.1718 130.743 94.9082 132.995 94.9082 135.772V176H175.802V135.772C175.802 132.995 173.538 130.743 170.746 130.743H99.964Z" fill="#C4C4C4"/>
<path d="M140.412 140.8H144.204V160.914H140.412V140.8Z" fill="#C4C4C4"/>
<path d="M147.994 140.8H151.786V160.914H147.994V140.8Z" fill="#C4C4C4"/>
<path d="M155.578 140.8H159.37V160.914H155.578V140.8Z" fill="#C4C4C4"/>
<path d="M162.729 8.36871C163.47 7.6323 164.67 7.6323 165.41 8.36871L177.03 19.9248C177.769 20.6612 177.769 21.8553 177.03 22.5917C176.289 23.328 175.088 23.328 174.348 22.5917L162.729 11.0355C161.989 10.2991 161.989 9.10513 162.729 8.36871Z" fill="#C4C4C4"/>
<path d="M177.03 8.36871C177.769 9.10513 177.769 10.2991 177.03 11.0355L165.41 22.5917C164.67 23.328 163.47 23.328 162.729 22.5917C161.989 21.8553 161.989 20.6612 162.729 19.9248L174.348 8.36871C175.088 7.6323 176.289 7.6323 177.03 8.36871Z" fill="#C4C4C4"/>
<path d="M13.3832 29.5429C13.9722 28.9571 14.9271 28.9571 15.5161 29.5429L24.7588 38.7357C25.3478 39.3216 25.3478 40.2713 24.7588 40.8572C24.1698 41.443 23.2149 41.443 22.6259 40.8572L13.3832 31.6643C12.7942 31.0785 12.7942 30.1287 13.3832 29.5429Z" fill="#C4C4C4"/>
<path d="M24.7588 29.5429C25.3478 30.1287 25.3478 31.0785 24.7588 31.6643L15.5161 40.8572C14.9271 41.443 13.9722 41.443 13.3832 40.8572C12.7942 40.2713 12.7942 39.3216 13.3832 38.7357L22.6259 29.5429C23.2149 28.9571 24.1698 28.9571 24.7588 29.5429Z" fill="#C4C4C4"/>
<path d="M199.818 119.429C199.818 123.594 196.423 126.971 192.234 126.971C188.045 126.971 184.65 123.594 184.65 119.429C184.65 115.263 188.045 111.886 192.234 111.886C196.423 111.886 199.818 115.263 199.818 119.429Z" fill="white"/>
<path fill-rule="evenodd" clip-rule="evenodd" d="M192.234 124.457C195.026 124.457 197.29 122.206 197.29 119.429C197.29 116.651 195.026 114.4 192.234 114.4C189.442 114.4 187.178 116.651 187.178 119.429C187.178 122.206 189.442 124.457 192.234 124.457ZM192.234 126.971C196.423 126.971 199.818 123.594 199.818 119.429C199.818 115.263 196.423 111.886 192.234 111.886C188.045 111.886 184.65 115.263 184.65 119.429C184.65 123.594 188.045 126.971 192.234 126.971Z" fill="#C4C4C4"/>
<path d="M225.097 57.829C225.097 61.9948 221.702 65.3718 217.513 65.3718C213.325 65.3718 209.93 61.9948 209.93 57.829C209.93 53.6632 213.325 50.2861 217.513 50.2861C221.702 50.2861 225.097 53.6632 225.097 57.829Z" fill="white"/>
<path fill-rule="evenodd" clip-rule="evenodd" d="M217.513 62.8576C220.306 62.8576 222.569 60.6061 222.569 57.829C222.569 55.0518 220.306 52.8004 217.513 52.8004C214.721 52.8004 212.458 55.0518 212.458 57.829C212.458 60.6061 214.721 62.8576 217.513 62.8576ZM217.513 65.3718C221.702 65.3718 225.097 61.9948 225.097 57.829C225.097 53.6632 221.702 50.2861 217.513 50.2861C213.325 50.2861 209.93 53.6632 209.93 57.829C209.93 61.9948 213.325 65.3718 217.513 65.3718Z" fill="#C4C4C4"/>
<path d="M15.2788 119.429C15.2788 123.594 11.8835 126.971 7.69508 126.971C3.5067 126.971 0.111328 123.594 0.111328 119.429C0.111328 115.263 3.5067 111.886 7.69508 111.886C11.8835 111.886 15.2788 115.263 15.2788 119.429Z" fill="white"/>
<path fill-rule="evenodd" clip-rule="evenodd" d="M7.69508 124.457C10.4873 124.457 12.7509 122.206 12.7509 119.429C12.7509 116.651 10.4873 114.4 7.69508 114.4C4.90287 114.4 2.63925 116.651 2.63925 119.429C2.63925 122.206 4.90287 124.457 7.69508 124.457ZM7.69508 126.971C11.8835 126.971 15.2788 123.594 15.2788 119.429C15.2788 115.263 11.8835 111.886 7.69508 111.886C3.5067 111.886 0.111328 115.263 0.111328 119.429C0.111328 123.594 3.5067 126.971 7.69508 126.971Z" fill="#C4C4C4"/>
<path d="M86.0603 3.77143C86.0603 5.85433 84.3627 7.54286 82.2684 7.54286C80.1742 7.54286 78.4766 5.85433 78.4766 3.77143C78.4766 1.68853 80.1742 0 82.2684 0C84.3627 0 86.0603 1.68853 86.0603 3.77143Z" fill="#C4C4C4"/>
<path d="M43.0857 80.457C43.0857 82.5399 41.3881 84.2284 39.2938 84.2284C37.1996 84.2284 35.502 82.5399 35.502 80.457C35.502 78.374 37.1996 76.6855 39.2938 76.6855C41.3881 76.6855 43.0857 78.374 43.0857 80.457Z" fill="#C4C4C4"/>
<path d="M174.539 76.6855C174.539 78.7685 172.841 80.4569 170.747 80.4569C168.653 80.4569 166.955 78.7685 166.955 76.6855C166.955 74.6025 168.653 72.9141 170.747 72.9141C172.841 72.9141 174.539 74.6025 174.539 76.6855Z" fill="#C4C4C4"/>
<path d="M116.396 148.971C116.396 150.707 114.981 152.114 113.236 152.114C111.491 152.114 110.076 150.707 110.076 148.971C110.076 147.235 111.491 145.828 113.236 145.828C114.981 145.828 116.396 147.235 116.396 148.971Z" fill="#F07B97"/>
<path d="M127.771 148.971C127.771 150.707 126.357 152.114 124.611 152.114C122.866 152.114 121.451 150.707 121.451 148.971C121.451 147.235 122.866 145.828 124.611 145.828C126.357 145.828 127.771 147.235 127.771 148.971Z" fill="#8AE6A3"/>
<path d="M107.707 78.3093C113.42 78.3093 118.75 80.4946 122.716 84.4613L125 82.1775C120.424 77.6003 114.282 75.0791 107.707 75.0791C101.132 75.0807 94.9897 77.6003 90.4141 82.1775L92.6978 84.4613C96.6645 80.4946 101.994 78.3093 107.707 78.3093ZM116.866 91.7261C111.902 86.7612 103.513 86.7612 98.5478 91.7261L100.832 94.0098C104.558 90.2838 110.857 90.2838 114.583 94.0098L116.866 91.7261Z" fill="#3C3A82"/>
<path d="M121.334 86.858C113.95 79.4705 101.466 79.4705 94.082 86.858L96.3658 89.1418C102.515 82.9931 112.901 82.9931 119.05 89.1418L121.334 86.858Z" fill="#3C3A82"/>
<path d="M107.707 100.92C109.491 100.92 110.937 99.4742 110.937 97.6902C110.937 95.9062 109.491 94.46 107.707 94.46C105.923 94.46 104.477 95.9062 104.477 97.6902C104.477 99.4742 105.923 100.92 107.707 100.92Z" fill="#3C3A82"/>
</svg>
