<svg width="24" height="24" viewBox="0 0 24 24" fill="none" xmlns="http://www.w3.org/2000/svg">
<path d="M18.5 9L13 3.5V9H18.5Z" fill="#FFE0E0"/>
<path d="M6 2C4.9 2 4.01 2.9 4.01 4L4 20C4 21.1 4.89 22 5.99 22H18C19.1 22 20 21.1 20 20V8L14 2H6ZM13 9V3.5L18.5 9H13Z" fill="#EE4047"/>
<path d="M5.624 13.4V19H6.568V13.4H5.624ZM6.184 14.232H7.312C7.63733 14.232 7.89867 14.3093 8.096 14.464C8.29333 14.6133 8.392 14.8373 8.392 15.136C8.392 15.4347 8.29333 15.6613 8.096 15.816C7.89867 15.9707 7.63733 16.048 7.312 16.048H6.184V16.88H7.312C7.71733 16.88 8.06933 16.8107 8.368 16.672C8.672 16.528 8.90667 16.3253 9.072 16.064C9.23733 15.8027 9.32 15.4933 9.32 15.136C9.32 14.7787 9.23733 14.472 9.072 14.216C8.90667 13.9547 8.672 13.7547 8.368 13.616C8.06933 13.472 7.71733 13.4 7.312 13.4H6.184V14.232ZM10.249 13.4V19H11.209V13.4H10.249ZM12.057 19C12.6277 19 13.129 18.8853 13.561 18.656C13.993 18.4213 14.329 18.096 14.569 17.68C14.8143 17.2587 14.937 16.7653 14.937 16.2C14.937 15.6347 14.8143 15.144 14.569 14.728C14.329 14.3067 13.993 13.9813 13.561 13.752C13.129 13.5173 12.6277 13.4 12.057 13.4H10.833V14.288H12.033C12.3103 14.288 12.5663 14.328 12.801 14.408C13.0357 14.488 13.2383 14.608 13.409 14.768C13.585 14.928 13.721 15.128 13.817 15.368C13.9183 15.608 13.969 15.8853 13.969 16.2C13.969 16.5147 13.9183 16.792 13.817 17.032C13.721 17.272 13.585 17.472 13.409 17.632C13.2383 17.792 13.0357 17.912 12.801 17.992C12.5663 18.072 12.3103 18.112 12.033 18.112H10.833V19H12.057ZM16.4424 14.248H18.9464V13.4H16.4424V14.248ZM16.4424 16.472H18.8664V15.648H16.4424V16.472ZM15.8584 13.4V19H16.7864V13.4H15.8584Z" fill="white"/>
</svg>
