<svg width="24" height="24" viewBox="0 0 24 24" fill="none" xmlns="http://www.w3.org/2000/svg">
<circle cx="12" cy="12" r="10" fill="#F5F5F9"/>
<circle cx="12" cy="12" r="10" fill="#3C3A82"/>
<path d="M15.3333 13.8222C14.9111 13.8222 14.5333 13.9889 14.2444 14.25L10.2833 11.9444C10.3111 11.8167 10.3333 11.6889 10.3333 11.5556C10.3333 11.4222 10.3111 11.2944 10.2833 11.1667L14.2 8.88333C14.5 9.16111 14.8944 9.33333 15.3333 9.33333C16.2556 9.33333 17 8.58889 17 7.66667C17 6.74444 16.2556 6 15.3333 6C14.4111 6 13.6667 6.74444 13.6667 7.66667C13.6667 7.8 13.6889 7.92778 13.7167 8.05556L9.8 10.3389C9.5 10.0611 9.10556 9.88889 8.66667 9.88889C7.74444 9.88889 7 10.6333 7 11.5556C7 12.4778 7.74444 13.2222 8.66667 13.2222C9.10556 13.2222 9.5 13.05 9.8 12.7722L13.7556 15.0833C13.7278 15.2 13.7111 15.3222 13.7111 15.4444C13.7111 16.3389 14.4389 17.0667 15.3333 17.0667C16.2278 17.0667 16.9556 16.3389 16.9556 15.4444C16.9556 14.55 16.2278 13.8222 15.3333 13.8222Z" fill="#F5F5F9"/>
</svg>
