<svg width="48" height="48" viewBox="0 0 48 48" fill="none" xmlns="http://www.w3.org/2000/svg">
<g clip-path="url(#clip0_29664_9165)">
<path d="M41.0063 6.97567C36.9079 2.89397 31.4591 0.434235 25.6744 0.0545181C19.8898 -0.325199 14.1637 1.40098 9.56243 4.91162C4.96114 8.42226 1.7983 13.4781 0.662879 19.1375C-0.472547 24.797 0.496837 30.6745 3.39052 35.6754L0 48.0003L12.6696 44.6931C16.1738 46.5928 20.1003 47.5882 24.0904 47.5885H24.1005C28.8267 47.5881 33.4467 46.1927 37.3766 43.5789C41.3064 40.965 44.3695 37.25 46.1789 32.9033C47.9883 28.5567 48.4626 23.7736 47.5419 19.1586C46.6212 14.5437 44.3469 10.3041 41.0063 6.97567ZM24.1005 43.5714H24.0928C20.5355 43.5716 17.0435 42.6196 13.9825 40.8152L13.2569 40.387L5.73765 42.3493L7.74486 35.0533L7.27186 34.3054C4.9308 30.5916 3.89583 26.2087 4.32965 21.8455C4.76347 17.4823 6.64148 13.3863 9.66845 10.2015C12.6954 7.0167 16.6997 4.92361 21.0518 4.25131C25.4039 3.579 29.8571 4.36559 33.7112 6.48742C37.5653 8.60925 40.6018 11.946 42.3435 15.9731C44.0851 20.0003 44.433 24.4894 43.3325 28.7348C42.2321 32.9802 39.7456 36.7412 36.2641 39.4265C32.7825 42.1118 28.5033 43.5692 24.0991 43.5694L24.1005 43.5714Z" fill="#E0E0E0"/>
<path d="M1.09766 46.6326L4.3334 34.8687C1.82671 30.5387 0.824984 25.5064 1.48352 20.552C2.14206 15.5976 4.42407 10.9978 7.97575 7.46593C11.5274 3.93403 16.1503 1.66731 21.1277 1.01719C26.1051 0.367075 31.159 1.36989 35.5056 3.87016C39.8523 6.37042 43.2489 10.2285 45.1689 14.8461C47.089 19.4637 47.4251 24.583 46.1252 29.4102C44.8254 34.2373 41.9621 38.5027 37.9794 41.545C33.9967 44.5873 29.117 46.2366 24.0969 46.237H24.0868C20.2799 46.2363 16.5337 45.2866 13.1901 43.4747L1.09958 46.6306L1.09766 46.6326Z" fill="url(#paint0_linear_29664_9165)"/>
<path fill-rule="evenodd" clip-rule="evenodd" d="M18.195 13.6864C17.7529 12.7076 17.2871 12.688 16.8667 12.6712C16.5224 12.6563 16.1285 12.6572 15.7356 12.6572C15.4364 12.6651 15.1421 12.7345 14.8712 12.861C14.6003 12.9876 14.3586 13.1686 14.1613 13.3926C13.4938 14.0218 12.9653 14.7825 12.6095 15.6263C12.2537 16.4701 12.0784 17.3784 12.0948 18.2934C12.0948 21.1849 14.2105 23.979 14.5056 24.3712C14.8007 24.7633 18.5894 30.8862 24.5894 33.2415C29.5758 35.199 30.5908 34.8097 31.6732 34.7118C32.7556 34.6139 35.1654 33.2905 35.6577 31.9182C36.15 30.5459 36.1495 29.3699 36.002 29.1241C35.8544 28.8784 35.461 28.7324 34.8704 28.4382C34.2797 28.144 31.3781 26.7222 30.8367 26.5264C30.2952 26.3305 29.9018 26.2326 29.5083 26.8211C29.1149 27.4096 27.9842 28.732 27.6395 29.1251C27.2947 29.5182 26.9505 29.5667 26.3603 29.2729C24.6201 28.5823 23.0139 27.5954 21.6135 26.3564C20.3229 25.169 19.2162 23.7976 18.3295 22.287C17.9853 21.6995 18.2924 21.3808 18.5889 21.087C18.8541 20.824 19.1791 20.4011 19.4747 20.0579C19.7169 19.7608 19.9155 19.431 20.0643 19.0782C20.143 18.9161 20.1797 18.7371 20.1713 18.5573C20.1629 18.3775 20.1095 18.2027 20.0161 18.0486C19.8671 17.7544 18.7196 14.8484 18.195 13.6864Z" fill="white"/>
<path d="M40.8111 6.8999C36.7608 2.86227 31.3741 0.42827 25.6547 0.0513855C19.9353 -0.325499 14.2733 1.38044 9.72369 4.85136C5.17407 8.32227 2.04712 13.3214 0.925438 18.9174C-0.196242 24.5133 0.763858 30.3244 3.62685 35.2679L0.275391 47.4537L12.7994 44.1844C16.2633 46.0623 20.1447 47.0464 24.089 47.0466H24.0992C28.7715 47.047 33.339 45.6681 37.2242 43.0844C41.1094 40.5006 44.1378 36.8281 45.9265 32.531C47.7153 28.234 48.184 23.5054 47.2735 18.9431C46.363 14.3809 44.1141 10.1898 40.8111 6.8999ZM24.0992 43.0756H24.0939C20.5772 43.0759 17.1252 42.1349 14.0993 40.3511L13.3818 39.9277L5.94795 41.8674L7.93201 34.654L7.46481 33.9148C5.15069 30.2435 4.12771 25.9107 4.55669 21.5975C4.98567 17.2843 6.84229 13.2354 9.83467 10.0871C12.8271 6.93888 16.7855 4.86989 21.0878 4.20541C25.39 3.54092 29.7921 4.31862 33.602 6.41624C37.4119 8.51386 40.4136 11.8125 42.1351 15.7935C43.8567 19.7745 44.2005 24.2122 43.1126 28.409C42.0246 32.6057 39.5666 36.3236 36.1248 38.978C32.6831 41.6325 28.4529 43.073 24.0992 43.0732V43.0756Z" fill="white"/>
</g>
<defs>
<linearGradient id="paint0_linear_29664_9165" x1="24.0004" y1="46.6326" x2="24.0004" y2="0.824219" gradientUnits="userSpaceOnUse">
<stop stop-color="#20B038"/>
<stop offset="1" stop-color="#60D66A"/>
</linearGradient>
<clipPath id="clip0_29664_9165">
<rect width="48" height="48" fill="white"/>
</clipPath>
</defs>
</svg>
