<svg width="32" height="33" viewBox="0 0 32 33" fill="none" xmlns="http://www.w3.org/2000/svg">
<g clip-path="url(#clip0_42432_53683)">
<path d="M31.9906 0.746094H0.009375C0.00419733 0.746094 0 0.750291 0 0.755469V32.7367C0 32.7419 0.00419733 32.7461 0.009375 32.7461H31.9906C31.9958 32.7461 32 32.7419 32 32.7367V0.755469C32 0.750291 31.9958 0.746094 31.9906 0.746094Z" fill="#5F01D1"/>
<path d="M12.6875 25.9961H8.8125L10.375 22.3086L6.0625 11.9961H10L12.3125 17.9336L14.625 11.9961H18.5M22.125 16.7461H17.8125L21.6875 7.49609H26" fill="white"/>
<path d="M18.9375 22.3711C20.2492 22.3711 21.3125 21.3078 21.3125 19.9961C21.3125 18.6844 20.2492 17.6211 18.9375 17.6211C17.6258 17.6211 16.5625 18.6844 16.5625 19.9961C16.5625 21.3078 17.6258 22.3711 18.9375 22.3711Z" fill="white"/>
</g>
<defs>
<clipPath id="clip0_42432_53683">
<rect width="32" height="32" fill="white" transform="translate(0 0.746094)"/>
</clipPath>
</defs>
</svg>
