<svg width="146" height="171" viewBox="0 0 146 171" fill="none" xmlns="http://www.w3.org/2000/svg">
<rect x="75.2052" y="139.795" width="68.5897" height="70.5897" transform="rotate(-90 75.2052 139.795)" stroke="#02005B" stroke-opacity="0.2" stroke-width="0.410342"/>
<rect x="4.20517" y="209.795" width="68.5897" height="70.5897" transform="rotate(-90 4.20517 209.795)" stroke="#02005B" stroke-opacity="0.2" stroke-width="0.410342"/>
<rect x="-22.7948" y="140.795" width="25.5897" height="26.5897" transform="rotate(-90 -22.7948 140.795)" stroke="#02005B" stroke-opacity="0.2" stroke-width="0.410342"/>
<rect x="-44" y="115" width="46" height="48" transform="rotate(-90 -44 115)" fill="#02005B" fill-opacity="0.09"/>
<rect x="-43.7948" y="114.795" width="45.5897" height="47.5897" transform="rotate(-90 -43.7948 114.795)" stroke="#02005B" stroke-opacity="0.2" stroke-width="0.410342"/>
<rect x="3.20517" y="68.7948" width="68.5897" height="70.5897" transform="rotate(-90 3.20517 68.7948)" stroke="#02005B" stroke-opacity="0.2" stroke-width="0.410342"/>
<rect x="68" y="78" width="15" height="15" transform="rotate(-90 68 78)" fill="#CCCBEC"/>
<rect x="1" y="118" width="6.24434" height="6.24434" transform="rotate(-90 1 118)" fill="#CCCBEC"/>
<rect x="72" y="144" width="6.24434" height="6.24434" transform="rotate(-90 72 144)" fill="#D7D7D7"/>
<rect x="1" y="72" width="6.24434" height="6.24434" transform="rotate(-90 1 72)" fill="#D7D7D7"/>
</svg>
